<?xml version="1.0" encoding="utf-8"?>
<!-- Generator: Adobe Illustrator 27.5.0, SVG Export Plug-In . SVG Version: 6.00 Build 0)  -->
<svg version="1.1" id="background" xmlns="http://www.w3.org/2000/svg" xmlns:xlink="http://www.w3.org/1999/xlink" x="0px" y="0px"
	 viewBox="0 0 600 400" style="enable-background:new 0 0 600 400;" xml:space="preserve">
<g>
	<linearGradient id="SVGID_1_" gradientUnits="userSpaceOnUse" x1="-7.5498" y1="147.0041" x2="619.7976" y2="255.1064">
		<stop  offset="0" style="stop-color:#3E4B60"/>
		<stop  offset="1" style="stop-color:#182338"/>
	</linearGradient>
	<rect y="0" style="fill:url(#SVGID_1_);" width="600" height="400"/>
	
		<linearGradient id="SVGID_00000182489649419383493040000009048891539026809997_" gradientUnits="userSpaceOnUse" x1="-45.1129" y1="364.9934" x2="582.2345" y2="473.0957">
		<stop  offset="0" style="stop-color:#2F3B4D"/>
		<stop  offset="1" style="stop-color:#0D1626"/>
	</linearGradient>
	<polygon style="fill:url(#SVGID_00000182489649419383493040000009048891539026809997_);" points="0,355.953 28.03,400 31.586,400 
		0,350.364 	"/>
	
		<linearGradient id="SVGID_00000048484117862536832390000010212224262835629759_" gradientUnits="userSpaceOnUse" x1="-6.9493" y1="143.519" x2="620.3982" y2="251.6213">
		<stop  offset="0" style="stop-color:#2F3B4D"/>
		<stop  offset="1" style="stop-color:#0D1626"/>
	</linearGradient>
	<path style="fill:url(#SVGID_00000048484117862536832390000010212224262835629759_);" d="M579.495,0l-32.341,52.317L453.779,0
		h-6.352l-93.301,49.734V0h-3v50.006L261.572,0h-8.82v99.459L194.657,0h-3.474l58.994,100.997L158.122,49.42L188.673,0h-3.527
		l-29.643,47.952L69.917,0h-6.138l89.167,49.959l-92.055,50.298V0h-6.083L0,18.987v3.175L55.602,2.9L0,84.582v5.332L57.892,4.87
		v96.63H0v3h57.892v102.377L0,116.464v5.565l55.144,86.117L0,179.995v3.368L56.092,212L0,240.637v3.368l55.144-28.152L0,301.971
		v5.564l57.892-90.412V322.51H0v3h57.892V400h3v-73.3L147,379.91L109.024,400h6.416l34.046-18.012L160.916,400h3.553l-12.323-19.419
		l97.346-51.499L202.434,400h3.6l46.719-70.406V400h3v-72.152L359.429,392l-10.591,8h4.979l8.349-6.307L372.358,400h5.7
		l-13.326-8.246l84.384-63.741V400h3v-72.226l86.599,56.466L508.925,400h6.415l25.797-13.647L549.798,400h3.553l-9.554-15.055
		L600,355.212v-3.394l-56.849,30.075V271.98L600,304.766v-3.462l-56.684-32.692l32.918-50.521l1.98-0.006L600,254.987v-5.902
		l-18.309-31.012l18.309-0.06v-3l-20.076,0.065l-0.821-1.39L600,181.616v-5.496l-22.6,34.684l-27.578-46.714L600,136.405v-3.427
		l-50.849,28.056V56.875L600,85.365v-3.439l-50.227-28.142l31.842-51.509L600,33.751v-5.947L583.76,0H579.495z M157.5,52.511
		l93.659,52.476l-93.659,51.43V52.511z M185.749,206.441l-27.692-46.907l90.712-49.811L185.749,206.441z M186.433,213.5
		l63.358,107.321l-97.936-56.866L184.73,213.5H186.433z M183.921,209.246l-0.817,1.254H65.24l90.186-49.522L183.921,209.246z
		 M154.5,52.529v103.873l-92.438-53.366L154.5,52.529z M60.892,105.824l92.008,53.118l-92.008,50.523V105.824z M60.892,214.605
		l86.563,50.263l-86.563,56.374V214.605z M148.5,377.31l-86.309-53.333l86.309-56.21V377.31z M149.257,262.446L64.961,213.5h116.188
		L149.257,262.446z M151.5,377.529V267.217l99.408,57.722L151.5,377.529z M252.752,319.935L189.917,213.5h62.835V319.935z
		 M252.752,210.5h-64.606l-0.694-1.176l65.301-100.22V210.5z M447.316,3.459l-62.314,100.3l-30.429-50.864L447.316,3.459z
		 M257.028,212.096l94.523-49.982l96.296,54.817l-2.735,1.509l-95.06,50.68L257.028,212.096z M444.663,323.5H259.713l90.304-50.94
		L444.663,323.5z M351.065,158.385l-91.023-51.815l122.3,1.472L351.065,158.385z M353.674,159.87l31.28-50.348l61.829,103.352
		L353.674,159.87z M351.923,54.308l30.351,50.733l-122.754-1.478L351.923,54.308z M255.752,0.186l93.441,52.177l-93.441,49.809
		V0.186z M255.752,107.58l92.708,52.775l-92.708,49.022V107.58z M255.752,214.834l91.29,55.959l-91.29,51.496V214.834z
		 M361.996,390.061L259.274,326.5h186.867L361.996,390.061z M449.116,322.489l-95.939-51.636l95.939-51.149V322.489z
		 M449.116,210.929l-61.514-102.824l61.514,0.741V210.929z M449.116,105.846l-61.419-0.739l61.419-98.859V105.846z M452.116,2.507
		l92.481,51.816l-92.481,50.531V2.507z M546.151,56.893v103.873L453.714,107.4L546.151,56.893z M452.116,109.942l92.671,53.501
		l-92.671,51.132V109.942z M452.116,219.476l86.581,49.935l-86.581,52.909V219.476z M540.151,381.596l-86.733-56.555l86.733-53.002
		V381.596z M540.713,267.11l-84.315-48.628l116.247-0.38L540.713,267.11z M575.573,213.61l-0.968,1.486l-117.921,0.385l90.511-49.94
		L575.573,213.61z"/>
</g>
</svg>
