<svg width="16" height="20" viewBox="0 0 16 20" fill="none" xmlns="http://www.w3.org/2000/svg">
<path d="M8 19.9C7.88333 19.9 7.775 19.8917 7.675 19.875C7.575 19.8584 7.475 19.8334 7.375 19.8C5.125 19.05 3.33333 17.6627 2 15.638C0.666667 13.6134 0 11.434 0 9.10003V4.37502C0 3.95836 0.121 3.58336 0.363 3.25002C0.605 2.91669 0.917333 2.67502 1.3 2.52502L7.3 0.275024C7.53333 0.191691 7.76667 0.150024 8 0.150024C8.23333 0.150024 8.46667 0.191691 8.7 0.275024L14.7 2.52502C15.0833 2.67502 15.396 2.91669 15.638 3.25002C15.88 3.58336 16.0007 3.95836 16 4.37502V9.10003C16 11.4334 15.3333 13.6127 14 15.638C12.6667 17.6634 10.875 19.0507 8.625 19.8C8.525 19.8334 8.425 19.8584 8.325 19.875C8.225 19.8917 8.11667 19.9 8 19.9ZM8 17.9C9.73333 17.35 11.1667 16.25 12.3 14.6C13.4333 12.95 14 11.1167 14 9.10003V4.37502L8 2.12502L2 4.37502V9.10003C2 11.1167 2.56667 12.95 3.7 14.6C4.83333 16.25 6.26667 17.35 8 17.9Z" fill="#16A34A"/>
</svg>
